#!OML:ASF F:\VICON\USERDATA\INSTALL\rory3\rory3.ASF
:FULLY-SPECIFIED
:DEGREES
331
root 5.3257 17.6246 31.2173 0.3111 -6.09248 -7.50961
lowerback 9.72062 2.84035 5.94242
upperback 0.440311 4.52095 1.82072
thorax -4.67756 2.12101 -2.03119
lowerneck -17.5436 -2.43972 -1.17129
upperneck 18.1438 -3.10826 0.305435
head 8.57456 -1.51236 -0.0896425
rclavicle 2.94574e-014 7.85199e-015
rhumerus -22.0016 -10.4601 -82.0717
rradius 31.8865
rwrist -0.871125
rhand -17.8928 24.1384
rfingers 7.12502
rthumb 8.37375 -5.67566
lclavicle 2.94574e-014 7.85199e-015
lhumerus -35.1144 8.17158 82.4737
lradius 21.7024
lwrist 4.80844
lhand -29.7756 14.8775
lfingers 7.12502
lthumb -3.10076 44.8347
rfemur 9.19688 7.39683 35.0151
rtibia 27.648
rfoot -20.4735 -6.19163
rtoes -7.26508
lfemur -26.6844 -4.2354 -9.75132
ltibia 14.9333
lfoot -7.33664 4.79192
ltoes -2.30631
332
root 5.33469 17.603 31.4182 0.0590065 -6.11682 -7.72821
lowerback 9.9702 2.83531 6.1286
upperback 0.415137 4.55894 1.8765
thorax -4.83167 2.13014 -2.09725
lowerneck -17.2171 -2.48294 -1.23566
upperneck 18.0258 -3.19635 0.50339
head 8.48172 -1.53899 -0.0183023
rclavicle -7.33888e-014 -1.2424e-014
rhumerus -22.2484 -10.7977 -82.0098
rradius 31.883
rwrist -0.713025
rhand -17.8318 24.2729
rfingers 7.12502
rthumb 8.43266 -5.53878
lclavicle -7.33888e-014 -1.2424e-014
lhumerus -35.4737 8.26954 82.1845
lradius 21.4745
lwrist 4.57691
lhand -31.4261 12.8954
lfingers 7.12502
lthumb -4.69462 42.8234
rfemur 9.64447 7.46416 35.3158
rtibia 28.594
rfoot -19.9713 -6.12045
rtoes -9.68465
lfemur -26.748 -3.8469 -9.87291
ltibia 16.6869
lfoot -7.47663 3.9299
ltoes -2.3108
333
root 5.34853 17.5996 31.6327 -0.00383098 -6.08144 -7.52211
lowerback 9.70223 2.8373 5.94929
upperback 0.48603 4.51337 1.81285
thorax -4.61854 2.11985 -2.03947
lowerneck -17.4597 -2.40303 -1.23281
upperneck 18.2696 -3.12263 0.66883
head 8.60996 -1.48427 0.0413027
rclavicle 2.08724e-014 2.55438e-014
rhumerus -22.1974 -10.9834 -81.985
rradius 31.7765
rwrist -0.76611
rhand -17.7109 24.197
rfingers 7.12502
rthumb 8.54933 -5.60989
lclavicle 2.08724e-014 2.55438e-014
lhumerus -35.5844 8.61545 81.8944
lradius 21.019
lwrist 4.27053
lhand -26.1688 15.3291
lfingers 7.12502
lthumb 0.382671 45.3085
rfemur 9.82288 7.46843 35.0369
rtibia 29.5936
rfoot -19.3098 -5.60762
rtoes -9.31365
lfemur -26.9615 -3.2735 -10.5758
ltibia 18.4087
lfoot -6.80708 2.60427
ltoes -3.8923
334
root 5.36976 17.6106 31.8609 -0.145225 -5.97323 -7.01727
lowerback 9.60533 2.8201 5.51431
upperback 0.432774 4.43258 1.67814
thorax -4.64748 2.0867 -1.92508
lowerneck -17.6547 -2.3519 -1.20112
upperneck 18.6237 -3.06256 0.666654
head 8.76441 -1.45165 0.0382235
rclavicle -3.60173e-014 -7.15625e-015
rhumerus -22.5146 -11.2221 -81.8951
rradius 31.7902
rwrist -0.592966
rhand -17.7909 24.2608
rfingers 7.12502
rthumb 8.47214 -5.54925
lclavicle -3.60173e-014 -7.15625e-015
lhumerus -35.9094 8.89685 81.5913
lradius 20.8191
lwrist 3.68109
lhand -25.5964 19.012
lfingers 7.12502
lthumb 0.935581 48.9897
rfemur 10.0399 7.18568 34.3111
rtibia 30.7016
rfoot -18.5334 -4.64894
rtoes -7.50722
lfemur -27.0219 -3.04926 -11.5184
ltibia 19.9548
lfoot -5.4064 1.00564
ltoes -3.84403
335
root 5.38642 17.6163 32.0776 -0.297069 -5.98416 -6.9607
lowerback 9.71354 2.81346 5.45953
upperback 0.338123 4.43132 1.69019
thorax -4.8128 2.08077 -1.89211
lowerneck -17.3776 -2.35417 -1.14713
upperneck 18.5923 -3.0515 0.521535
head 8.70051 -1.45986 -0.0147943
rclavicle -4.92862e-014 -4.27387e-015
rhumerus -22.8473 -11.2448 -81.785
rradius 31.7319
rwrist -0.73633
rhand -17.9436 24.5511
rfingers 7.12502
rthumb 8.32472 -5.26482
lclavicle -4.92862e-014 -4.27387e-015
lhumerus -36.2321 9.05483 81.3745
lradius 20.5534
lwrist 3.70574
lhand -24.0167 20.2083
lfingers 7.12502
lthumb 2.46126 50.1738
rfemur 10.2628 6.99301 34.1108
rtibia 31.738
rfoot -17.3815 -3.89443
rtoes -6.61742
lfemur -27.0787 -3.02446 -11.7051
ltibia 21.1584
lfoot -3.85398 -0.40941
ltoes -2.45257
